<svg width="325" height="166" viewBox="0 0 225 66" fill="none" xmlns="http://www.w3.org/2000/svg">
    <g clip-path="url(#clip0_1315_136)">
        <path
            d="M29.3732 53.2642C29.3732 52.8631 29.3711 52.4725 29.3732 52.0819C29.382 50.556 29.3531 49.0289 29.4098 47.5039C29.5509 43.7155 30.2078 40.0304 31.7471 36.536C33.611 32.3032 36.596 29.0902 40.5918 26.792C42.9858 25.4169 45.5428 24.4593 48.2069 23.768C48.3782 23.7235 48.4227 23.663 48.4013 23.4853C48.2753 22.4513 48.1678 21.4151 48.0531 20.3798C48.0494 20.3462 48.0393 20.3135 48.0267 20.2538C47.6239 20.3433 47.2287 20.4252 46.8372 20.5184C43.6184 21.2866 40.5427 22.4219 37.6535 24.0544C33.1074 26.624 29.9734 30.3964 28.046 35.2172C27.046 37.7183 26.374 40.3009 25.9422 42.954C25.5075 45.6126 25.3614 48.2905 25.408 50.9827C25.4214 51.7387 25.4101 52.4947 25.4101 53.2663H18.3999V53.034C18.3999 51.7601 18.3999 50.4859 18.3974 49.212C18.3923 47.322 18.5326 45.4375 18.7653 43.5605C19.1261 40.6528 19.7414 37.8023 20.6633 35.0202C21.7973 31.5972 23.3655 28.396 25.5462 25.5101C27.9116 22.3795 30.8718 19.938 34.2671 18.0018C37.7867 15.9963 41.552 14.6313 45.4907 13.7249C47.1136 13.3516 48.7508 13.0571 50.4098 12.9001C51.3569 12.8106 52.3069 12.756 53.254 12.6741C53.4287 12.6594 53.4959 12.7199 53.5396 12.8841C54.0207 14.6803 54.3993 16.5024 54.6736 18.3416C54.8928 19.8141 55.0936 21.2908 55.2456 22.7717C55.4838 25.0906 55.6614 27.4157 55.5123 29.7496C55.2385 34.0399 54.1234 38.0761 51.8768 41.773C50.5299 43.9897 48.789 45.847 46.7847 47.4761C44.2227 49.5564 41.3966 51.152 38.2306 52.1213C36.6306 52.6059 34.9818 52.912 33.3145 53.034C32.3661 53.1067 31.4186 53.1932 30.4694 53.2587C30.1221 53.286 29.7722 53.2642 29.3732 53.2642ZM48.222 30.984C48.138 31.005 48.0909 31.0138 48.046 31.0289C46.7486 31.4754 45.489 32.0084 44.2912 32.6816C42.0455 33.945 40.1891 35.6103 38.9055 37.872C37.916 39.6171 37.3024 41.4953 36.9143 43.4538C36.8228 43.9158 36.7505 44.3841 36.6653 44.8742C36.7514 44.8541 36.7988 44.8478 36.8433 44.8322C38.247 44.3484 39.6048 43.7629 40.8884 43.0103C43.1404 41.6902 44.9573 39.9443 46.1854 37.6192C47.0506 35.9812 47.6088 34.2361 47.9666 32.4238C48.0594 31.9542 48.1346 31.4804 48.222 30.984Z"
            fill="#6A49A2" />
    </g>
    <path
        d="M80.864 27.656H74.08V47H69.264V27.656H62.48V23.784H80.864V27.656ZM93.7193 38.184L91.2073 31.08C91.0579 30.7067 90.8979 30.2693 90.7273 29.768C90.5673 29.2667 90.4126 28.7227 90.2633 28.136C90.1139 28.7333 89.9539 29.288 89.7833 29.8C89.6233 30.3013 89.4686 30.7387 89.3193 31.112L86.8233 38.184H93.7193ZM101.783 47H98.0553C97.6393 47 97.2979 46.904 97.0312 46.712C96.7753 46.5093 96.5833 46.2533 96.4553 45.944L94.8873 41.512H85.6393L84.0713 45.944C83.9646 46.2107 83.7779 46.456 83.5113 46.68C83.2446 46.8933 82.9086 47 82.5033 47H78.7432L87.8153 23.784H92.7273L101.783 47ZM118.083 27.656H111.299V47H106.483V27.656H99.6988V23.784H118.083V27.656ZM142.708 35.384C142.708 37.08 142.42 38.6533 141.844 40.104C141.278 41.5547 140.473 42.808 139.428 43.864C138.393 44.92 137.145 45.752 135.684 46.36C134.222 46.9573 132.601 47.256 130.82 47.256C129.038 47.256 127.417 46.9573 125.956 46.36C124.494 45.752 123.241 44.92 122.196 43.864C121.15 42.808 120.34 41.5547 119.764 40.104C119.198 38.6533 118.916 37.08 118.916 35.384C118.916 33.688 119.198 32.12 119.764 30.68C120.34 29.2293 121.15 27.976 122.196 26.92C123.241 25.864 124.494 25.0373 125.956 24.44C127.417 23.832 129.038 23.528 130.82 23.528C132.601 23.528 134.222 23.832 135.684 24.44C137.145 25.0373 138.393 25.8693 139.428 26.936C140.473 27.992 141.278 29.2453 141.844 30.696C142.42 32.136 142.708 33.6987 142.708 35.384ZM137.796 35.384C137.796 34.168 137.636 33.08 137.316 32.12C136.996 31.1493 136.532 30.328 135.924 29.656C135.326 28.9733 134.596 28.456 133.732 28.104C132.878 27.7413 131.908 27.56 130.82 27.56C129.732 27.56 128.756 27.7413 127.892 28.104C127.028 28.456 126.292 28.9733 125.684 29.656C125.086 30.328 124.628 31.1493 124.308 32.12C123.988 33.08 123.828 34.168 123.828 35.384C123.828 36.6107 123.988 37.7093 124.308 38.68C124.628 39.64 125.086 40.456 125.684 41.128C126.292 41.8 127.028 42.3173 127.892 42.68C128.756 43.032 129.732 43.208 130.82 43.208C131.908 43.208 132.878 43.032 133.732 42.68C134.596 42.3173 135.326 41.8 135.924 41.128C136.532 40.456 136.996 39.64 137.316 38.68C137.636 37.7093 137.796 36.6107 137.796 35.384ZM155.303 38.072V47H150.503V38.072L142.071 23.784H146.295C146.711 23.784 147.042 23.8853 147.287 24.088C147.543 24.28 147.746 24.5307 147.895 24.84L151.703 32.152C151.959 32.6427 152.188 33.1013 152.391 33.528C152.604 33.9547 152.791 34.3813 152.951 34.808C153.1 34.3813 153.271 33.9547 153.463 33.528C153.666 33.0907 153.89 32.632 154.135 32.152L157.911 24.84C158.039 24.584 158.231 24.344 158.487 24.12C158.743 23.896 159.074 23.784 159.479 23.784H163.735L155.303 38.072ZM175.657 38.184L173.145 31.08C172.995 30.7067 172.835 30.2693 172.665 29.768C172.505 29.2667 172.35 28.7227 172.201 28.136C172.051 28.7333 171.891 29.288 171.721 29.8C171.561 30.3013 171.406 30.7387 171.257 31.112L168.761 38.184H175.657ZM183.721 47H179.993C179.577 47 179.235 46.904 178.969 46.712C178.713 46.5093 178.521 46.2533 178.393 45.944L176.825 41.512H167.577L166.009 45.944C165.902 46.2107 165.715 46.456 165.449 46.68C165.182 46.8933 164.846 47 164.441 47H160.681L169.753 23.784H174.665L183.721 47ZM205.758 23.784V47H203.278C202.904 47 202.59 46.9413 202.334 46.824C202.078 46.696 201.827 46.4827 201.582 46.184L190.014 31.464C190.046 31.8373 190.067 32.2053 190.078 32.568C190.099 32.9307 190.11 33.2667 190.11 33.576V47H185.87V23.784H188.398C188.6 23.784 188.771 23.7947 188.91 23.816C189.059 23.8267 189.192 23.864 189.31 23.928C189.427 23.9813 189.539 24.056 189.646 24.152C189.752 24.248 189.87 24.376 189.998 24.536L201.646 39.32C201.603 38.9147 201.571 38.5253 201.55 38.152C201.528 37.768 201.517 37.4053 201.517 37.064V23.784H205.758Z"
        fill="#6A49A2" />
    <defs>
        <clipPath id="clip0_1315_136">
            <rect width="42" height="42" fill="white" transform="translate(16 12)" />
        </clipPath>
    </defs>
</svg>